<svg width="221" height="258" viewBox="0 0 221 258" fill="none" xmlns="http://www.w3.org/2000/svg">
<path d="M202.019 0L209.471 5.01774L212.29 38.9681L200.818 39.9206L199.359 22.3492L175.962 57.2253L202.452 86.9478L203.29 93.3793L182.545 134.313L172.277 129.109L191.247 91.6768L164.399 61.5537L163.917 54.5174L189.848 15.8628L174.473 20.6662L171.04 9.67823L202.019 0Z" fill="white" style="fill:white;fill-opacity:1;"/>
<path fill-rule="evenodd" clip-rule="evenodd" d="M5.87749 190.911L0.617109 180.772L31.9171 130.798L43.4717 131.143L54.6362 151.554L72.6285 128.804L83.7292 129.68L116.252 187.631L109.992 197.489L5.87749 190.911ZM47.6713 166.636C47.7171 166.725 47.7651 166.813 47.8151 166.899L55.3801 180.73L17.8839 178.361L37.2081 147.508L47.6713 166.636ZM71.1395 181.725L61.5923 164.271L76.9433 144.861L98.6053 183.461L71.1395 181.725Z" fill="#29A86D" style="fill:#29A86D;fill:color(display-p3 0.1600 0.6588 0.4260);fill-opacity:1;"/>
<path d="M165.684 178.518L141.518 220.375L183.375 244.54L207.54 202.684L165.684 178.518Z" fill="#FFBF00" style="fill:#FFBF00;fill:color(display-p3 1.0000 0.7500 0.0000);fill-opacity:1;"/>
<path fill-rule="evenodd" clip-rule="evenodd" d="M148.89 218.4L181.4 237.169L200.169 204.659L167.659 185.89L148.89 218.4ZM136.845 217.677L161.011 175.82L168.382 173.845L210.239 198.011L212.214 205.382L188.048 247.239L180.677 249.214L138.82 225.048L136.845 217.677Z" fill="#FFBF00" style="fill:#FFBF00;fill:color(display-p3 1.0000 0.7500 0.0000);fill-opacity:1;"/>
<circle cx="43.2441" cy="65.5" r="22.5" fill="#CC3434" style="fill:#CC3434;fill:color(display-p3 0.8013 0.2028 0.2028);fill-opacity:1;"/>
<circle cx="88.2441" cy="40.5" r="22.5" fill="#CC3434" style="fill:#CC3434;fill:color(display-p3 0.8013 0.2028 0.2028);fill-opacity:1;"/>
</svg>
