<svg width="356" height="133" viewBox="0 0 356 133" fill="none" xmlns="http://www.w3.org/2000/svg">
<path fill-rule="evenodd" clip-rule="evenodd" d="M95.09 35.418V110.153L120.348 98.9878V40.3096H135.206V103.823L130.782 110.615L90.6656 128.347L80.2322 121.556V35.418H95.09Z" fill="currentColor" style="fill:currentColor;fill-opacity:1;"/>
<path fill-rule="evenodd" clip-rule="evenodd" d="M151.621 19.8094L165.923 17.845L193.506 87.8354L215.837 18.2972L230.245 19.3923L247.721 128.456L233.05 130.805L220.488 52.4054L201.294 112.177L187.309 112.629L163.288 51.6795L155.211 130.442L140.43 128.928L151.621 19.8094Z" fill="currentColor" style="fill:currentColor;fill-opacity:1;"/>
<path fill-rule="evenodd" clip-rule="evenodd" d="M256.297 33.9328L267.44 27.5014L303.841 48.5014L305.291 60.2715L271.155 93.2573V123.783H256.297V33.9328ZM271.155 72.6009L287.879 56.4403L271.155 46.7921V72.6009Z" fill="currentColor" style="fill:currentColor;fill-opacity:1;"/>
<path fill-rule="evenodd" clip-rule="evenodd" d="M351.501 7.55628L325.832 50.9687L354.352 78.8436L356 87.0474L336.952 132.031L323.269 126.242L340.343 85.922L311.278 57.5148L310.076 48.4273L338.71 0L351.501 7.55628Z" fill="currentColor" style="fill:currentColor;fill-opacity:1;"/>
<path fill-rule="evenodd" clip-rule="evenodd" d="M0 10.9134L10.9485 4.374L68.9464 35.5618L69.3761 48.3907L47.377 62.1921L74.0437 80.5383L73.849 92.9014L11.4461 133L0 126.754V10.9134ZM30.0478 55.5296C29.9521 55.5866 29.8576 55.6459 29.7643 55.7074L14.8578 65.0592V23.3402L50.6649 42.5951L30.0478 55.5296ZM14.8578 82.5934L33.6702 70.7912L56.4221 86.4441L14.8578 113.152V82.5934Z" fill="currentColor" style="fill:currentColor;fill-opacity:1;"/>
</svg>
