<svg width="48" height="49" viewBox="0 0 48 49" fill="none" xmlns="http://www.w3.org/2000/svg">
<path fill-rule="evenodd" clip-rule="evenodd" d="M1.41221 15.8539L27.8539 0.58779L32.5105 1.83553L47.7766 28.2772L46.5289 32.9338L20.0872 48.2L15.4306 46.9522L0.164474 20.5105L1.41221 15.8539Z" fill="#FFBF00" style="fill:#FFBF00;fill:color(display-p3 1.0000 0.7500 0.0000);fill-opacity:1;"/>
<path fill-rule="evenodd" clip-rule="evenodd" d="M26.6908 3.43049L27.5186 3.32151L31.4344 4.37075L32.0968 4.87903L44.9343 27.1141L45.0432 27.9419L43.994 31.8577L43.4857 32.5201L21.2506 45.3576L20.4228 45.4666L16.507 44.4173L15.8446 43.9091L3.00716 21.674L2.89817 20.8461L3.94741 16.9303L4.45569 16.2679L26.6908 3.43049ZM27.3904 5.54594L5.93793 17.9315L5.12261 20.9744L17.5082 42.4268L20.551 43.2421L42.0035 30.8566L42.8188 27.8137L30.4332 6.36127L27.3904 5.54594Z" fill="#17201C" style="fill:#17201C;fill:color(display-p3 0.0902 0.1255 0.1098);fill-opacity:1;"/>
<path d="M30.3986 10.8694L31.6561 12.3455L30.3124 19.6934L27.8843 19.259L28.5797 15.456L21.7584 21.5463L25.5534 29.3112L25.3616 30.72L18.7454 38.2405L16.9158 36.5688L22.966 29.6916L19.1199 21.8221L19.4193 20.3048L26.9796 13.5547L23.5253 13.7196L23.4386 11.2017L30.3986 10.8694Z" fill="#17201C" style="fill:#17201C;fill:color(display-p3 0.0920 0.1274 0.1109);fill-opacity:1;"/>
</svg>
