<svg width="146" height="28" viewBox="0 0 146 28" fill="none" xmlns="http://www.w3.org/2000/svg">
<g clip-path="url(#clip0_78_742)">
<path d="M143.518 8.42944H142.233C142.218 8.4276 142.202 8.42921 142.188 8.43415C142.174 8.43909 142.161 8.44722 142.15 8.45795C142.139 8.46867 142.131 8.4817 142.126 8.49604C142.121 8.51038 142.12 8.52567 142.121 8.54072V8.60776C142.12 8.6211 142.121 8.63468 142.124 8.64768C142.128 8.66069 142.134 8.67288 142.142 8.68354C142.15 8.6942 142.16 8.70311 142.172 8.70978C142.184 8.71645 142.196 8.72074 142.21 8.7224C142.217 8.72328 142.225 8.72328 142.233 8.7224H142.701V10.1724C142.699 10.1855 142.7 10.1987 142.704 10.2113C142.707 10.224 142.713 10.2358 142.721 10.2461C142.729 10.2565 142.739 10.2651 142.751 10.2716C142.762 10.278 142.775 10.2821 142.788 10.2837C142.796 10.2847 142.804 10.2847 142.812 10.2837H142.937C142.964 10.2865 142.991 10.2787 143.012 10.2618C143.032 10.245 143.046 10.2205 143.049 10.1939C143.049 10.1868 143.049 10.1796 143.049 10.1724V8.72374H143.517C143.544 8.72577 143.571 8.71691 143.592 8.69907C143.613 8.68124 143.625 8.65589 143.628 8.62854C143.628 8.62186 143.628 8.61512 143.628 8.60843V8.54139C143.631 8.51492 143.624 8.48816 143.608 8.46694C143.592 8.44572 143.568 8.43177 143.541 8.4281C143.534 8.42765 143.526 8.4281 143.518 8.42944Z" fill="white" style="fill:white;fill-opacity:1;"/>
<path d="M145.856 8.53268C145.856 8.51906 145.854 8.50549 145.849 8.49275C145.844 8.48001 145.837 8.46835 145.828 8.45844C145.818 8.44853 145.807 8.44058 145.795 8.43503C145.782 8.42947 145.769 8.42643 145.755 8.42609H145.575C145.547 8.42475 145.52 8.43255 145.497 8.4483C145.474 8.46406 145.457 8.48688 145.449 8.51324L144.929 9.77557L144.405 8.51324C144.396 8.48688 144.379 8.46406 144.357 8.4483C144.334 8.43255 144.307 8.42475 144.279 8.42609H144.113C144.086 8.42306 144.059 8.43081 144.038 8.44764C144.016 8.46447 144.003 8.48902 144 8.51592C143.999 8.52128 143.999 8.52665 144 8.53201L143.846 10.1617C143.84 10.1867 143.844 10.213 143.858 10.2348C143.871 10.2567 143.892 10.2723 143.917 10.2784C143.929 10.2807 143.942 10.2807 143.953 10.2784H144.079C144.105 10.2774 144.13 10.2666 144.149 10.2482C144.168 10.2297 144.179 10.2048 144.181 10.1785L144.282 9.00194L144.76 10.1758C144.768 10.2024 144.785 10.2255 144.808 10.2415C144.831 10.2575 144.858 10.2655 144.886 10.2643H144.941C144.969 10.2655 144.996 10.2575 145.019 10.2415C145.042 10.2255 145.059 10.2024 145.067 10.1758L145.545 9.00194L145.646 10.1785C145.646 10.1923 145.648 10.206 145.653 10.2188C145.658 10.2316 145.666 10.2433 145.676 10.2532C145.685 10.2632 145.697 10.2711 145.709 10.2765C145.722 10.282 145.735 10.2849 145.749 10.2851H145.888C145.904 10.287 145.92 10.2852 145.934 10.2798C145.949 10.2743 145.963 10.2654 145.973 10.2538C145.984 10.2422 145.991 10.2282 145.995 10.213C146 10.1978 146 10.1818 145.997 10.1664L145.856 8.53268Z" fill="white" style="fill:white;fill-opacity:1;"/>
<path d="M53.5569 17.5494H51.9377L50.0703 17.5192C50.0603 17.5204 50.0502 17.5204 50.0402 17.5192C49.6092 17.4573 49.1987 17.2949 48.8416 17.0451C48.4846 16.7952 48.1911 16.4649 47.9846 16.0806C47.7781 15.6964 47.6645 15.2689 47.6528 14.8326C47.6411 14.3963 47.7318 13.9634 47.9174 13.5686L47.9261 13.5498C48.1579 13.0854 48.5139 12.6946 48.9545 12.4213C49.395 12.1479 49.9027 12.0027 50.4208 12.0019H52.7429C52.789 12.0016 52.8336 11.9853 52.8692 11.9559C52.9048 11.9265 52.9291 11.8857 52.9382 11.8403L53.2225 10.3722C53.2323 10.32 53.2211 10.2661 53.1914 10.2222C53.1617 10.1782 53.1159 10.1478 53.0639 10.1376C53.052 10.1353 53.0399 10.1342 53.0278 10.1342H50.4756C49.8648 10.124 49.258 10.2351 48.6901 10.4609C48.1222 10.6868 47.6045 11.023 47.1668 11.4501C46.7291 11.8773 46.38 12.3871 46.1396 12.95C45.8992 13.513 45.7722 14.1181 45.766 14.7304C45.7599 15.3427 45.8746 15.9503 46.1036 16.518C46.3326 17.0857 46.6713 17.6024 47.1004 18.0384C47.5294 18.4744 48.0402 18.821 48.6034 19.0583C49.1666 19.2956 49.7711 19.4189 50.382 19.4211H53.2706C53.3167 19.4207 53.3613 19.4045 53.3969 19.3751C53.4325 19.3456 53.4568 19.3048 53.4659 19.2595L53.7502 17.7914C53.7603 17.7397 53.7498 17.6861 53.7209 17.6421C53.692 17.5981 53.647 17.5672 53.5957 17.5561C53.583 17.5526 53.57 17.5503 53.5569 17.5494Z" fill="white" style="fill:white;fill-opacity:1;"/>
<path d="M71.023 10.1289H68.4654C67.8546 10.1187 67.2478 10.2297 66.6799 10.4556C66.112 10.6814 65.5943 11.0176 65.1566 11.4448C64.7189 11.872 64.3698 12.3817 64.1294 12.9447C63.889 13.5077 63.762 14.1127 63.7559 14.7251C63.7497 15.3374 63.8644 15.9449 64.0934 16.5126C64.3224 17.0803 64.6612 17.5971 65.0902 18.033C65.5192 18.469 66.03 18.8156 66.5932 19.0529C67.1564 19.2902 67.7609 19.4135 68.3718 19.4157H69.3362C69.3825 19.4153 69.4273 19.3989 69.4629 19.3692C69.4985 19.3395 69.5227 19.2984 69.5315 19.2528L69.8098 17.778C69.8192 17.7262 69.8081 17.6728 69.7787 17.6292C69.7493 17.5855 69.704 17.5552 69.6526 17.5447C69.6409 17.5425 69.629 17.5413 69.6171 17.5413L68.0621 17.5158C68.0521 17.5171 68.042 17.5171 68.032 17.5158C67.601 17.4541 67.1903 17.2918 66.8332 17.042C66.4761 16.7922 66.1825 16.4618 65.976 16.0775C65.7695 15.6932 65.6559 15.2657 65.6443 14.8294C65.6327 14.393 65.7234 13.96 65.9092 13.5653L65.9179 13.5465C66.1494 13.0819 66.5052 12.691 66.9454 12.4173C67.3857 12.1436 67.8932 11.998 68.4113 11.9966H70.7334C70.7795 11.9962 70.8241 11.98 70.8597 11.9506C70.8953 11.9211 70.9196 11.8803 70.9287 11.835L71.1808 10.511L71.2083 10.3655C71.2185 10.3133 71.2077 10.2592 71.1783 10.215C71.1488 10.1708 71.1031 10.1401 71.0511 10.1295C71.0418 10.1287 71.0324 10.1284 71.023 10.1289Z" fill="white" style="fill:white;fill-opacity:1;"/>
<path d="M63.4841 10.1295H61.4301C61.3998 10.1297 61.37 10.1367 61.3427 10.15C61.3155 10.1634 61.2917 10.1827 61.273 10.2066L58.4874 13.7516H58.4747L56.9772 10.2502C56.9625 10.2135 56.9373 10.182 56.9048 10.1596C56.8723 10.1372 56.834 10.1249 56.7946 10.1242H54.7132C54.6656 10.1246 54.6197 10.1419 54.5837 10.1731C54.5477 10.2043 54.5239 10.2473 54.5166 10.2945V10.3273C54.509 10.3702 54.5156 10.4145 54.5353 10.4533L57.1103 15.5778C57.1307 15.6164 57.1373 15.6609 57.129 15.7038L56.5197 19.1858C56.5111 19.2378 56.5233 19.2911 56.5536 19.3343C56.5838 19.3774 56.6298 19.4069 56.6816 19.4164C56.6929 19.4173 56.7043 19.4173 56.7157 19.4164H58.363C58.4099 19.4162 58.4552 19.3995 58.4912 19.3693C58.5271 19.339 58.5513 19.2971 58.5596 19.2508L59.1843 15.6602C59.1904 15.6243 59.2061 15.5907 59.2297 15.563L63.6573 10.4198C63.6729 10.4006 63.6828 10.3774 63.6861 10.3528C63.6937 10.3001 63.6802 10.2465 63.6485 10.2037C63.6168 10.161 63.5694 10.1326 63.5169 10.1248C63.5058 10.1255 63.4949 10.1271 63.4841 10.1295Z" fill="white" style="fill:white;fill-opacity:1;"/>
<path d="M77.9085 17.784H74.1865C74.1333 17.784 74.0823 17.7628 74.0446 17.7251C74.007 17.6874 73.9859 17.6362 73.9859 17.5829C73.9849 17.5715 73.9849 17.5601 73.9859 17.5487L75.2566 10.3622C75.2655 10.3097 75.2534 10.2559 75.2228 10.2124C75.1922 10.1689 75.1457 10.1394 75.0934 10.1302C75.0823 10.1292 75.0711 10.1292 75.06 10.1302H73.414C73.3671 10.1304 73.3217 10.1471 73.2858 10.1773C73.2499 10.2076 73.2257 10.2495 73.2174 10.2958L71.6597 19.1838C71.6512 19.2358 71.6633 19.2891 71.6936 19.3323C71.7239 19.3754 71.7698 19.4049 71.8216 19.4144C71.8329 19.4153 71.8443 19.4153 71.8557 19.4144H77.6945C77.7414 19.4142 77.7867 19.3975 77.8227 19.3672C77.8586 19.337 77.8828 19.2951 77.8911 19.2488L78.1011 18.0159C78.1096 17.9635 78.0971 17.9098 78.0663 17.8666C78.0354 17.8234 77.9888 17.7942 77.9366 17.7853C77.9273 17.7842 77.9179 17.7838 77.9085 17.784Z" fill="white" style="fill:white;fill-opacity:1;"/>
<path d="M83.1326 10.1289H81.4853C81.4383 10.1291 81.393 10.1457 81.3571 10.176C81.3211 10.2062 81.2969 10.2482 81.2886 10.2944L79.731 19.1824C79.7224 19.2345 79.7345 19.2878 79.7648 19.3309C79.7951 19.374 79.841 19.4035 79.8928 19.413C79.9041 19.414 79.9156 19.414 79.9269 19.413H81.5769C81.6238 19.4128 81.6692 19.3962 81.7051 19.3659C81.741 19.3356 81.7652 19.2937 81.7735 19.2474L83.3312 10.3608C83.34 10.3089 83.3281 10.2555 83.2981 10.2123C83.2681 10.169 83.2223 10.1393 83.1707 10.1295C83.158 10.1281 83.1453 10.1279 83.1326 10.1289Z" fill="white" style="fill:white;fill-opacity:1;"/>
<path d="M93.3855 10.1295H91.7382C91.6925 10.1313 91.6487 10.1486 91.6141 10.1788C91.5796 10.2089 91.5563 10.2499 91.5483 10.2951L90.6955 15.1735C90.6876 15.2136 90.6677 15.2504 90.6384 15.2789C90.6091 15.3074 90.5718 15.3262 90.5316 15.3329C90.4913 15.3396 90.45 15.3338 90.4131 15.3164C90.3762 15.2989 90.3455 15.2706 90.325 15.2352L87.5548 10.2334C87.5375 10.2023 87.5123 10.1764 87.4818 10.1583C87.4512 10.1401 87.4164 10.1305 87.3809 10.1302H86.0867C86.0398 10.1304 85.9945 10.1471 85.9585 10.1773C85.9226 10.2076 85.8984 10.2495 85.8901 10.2958L84.3197 19.1697C84.3107 19.2217 84.3225 19.2752 84.3526 19.3186C84.3826 19.362 84.4284 19.3919 84.4802 19.4016C84.4922 19.4027 84.5043 19.4027 84.5164 19.4016H86.1636C86.2103 19.4011 86.2554 19.3843 86.291 19.3541C86.3267 19.3239 86.3507 19.2821 86.3589 19.236L87.2404 14.3134C87.2485 14.2734 87.2686 14.2368 87.298 14.2084C87.3274 14.1801 87.3647 14.1615 87.4049 14.1549C87.4451 14.1484 87.4864 14.1542 87.5232 14.1718C87.56 14.1893 87.5906 14.2177 87.611 14.2531L90.3812 19.3018C90.3986 19.333 90.424 19.3591 90.4548 19.3773C90.4856 19.3954 90.5207 19.405 90.5564 19.405H91.8332C91.8801 19.4048 91.9255 19.3881 91.9614 19.3579C91.9973 19.3276 92.0215 19.2857 92.0298 19.2394L93.5875 10.3528C93.594 10.3005 93.5798 10.2478 93.5479 10.2059C93.516 10.164 93.469 10.1364 93.417 10.1289C93.4065 10.1282 93.396 10.1284 93.3855 10.1295Z" fill="white" style="fill:white;fill-opacity:1;"/>
<path d="M103.164 13.8408H99.7647C99.718 13.8413 99.673 13.8581 99.6373 13.8883C99.6017 13.9186 99.5776 13.9603 99.5694 14.0064L99.3112 15.4765C99.3027 15.5286 99.3149 15.5819 99.3451 15.625C99.3754 15.6682 99.4213 15.6977 99.4731 15.7071C99.4845 15.7081 99.4959 15.7081 99.5072 15.7071H100.904C100.933 15.7074 100.962 15.7141 100.988 15.7268C101.015 15.7394 101.038 15.7577 101.056 15.7803C101.075 15.8029 101.088 15.8293 101.096 15.8576C101.103 15.886 101.104 15.9156 101.099 15.9445L100.825 17.3811C100.816 17.4273 100.791 17.4688 100.754 17.4984C100.718 17.5279 100.672 17.5436 100.625 17.5427L99.1287 17.5199H99.0986C98.6675 17.4581 98.2568 17.2958 97.8997 17.046C97.5426 16.7962 97.249 16.4658 97.0425 16.0815C96.836 15.6972 96.7224 15.2697 96.7108 14.8334C96.6992 14.397 96.7899 13.9641 96.9757 13.5693L96.9844 13.5492C97.2154 13.0835 97.5711 12.6915 98.0117 12.417C98.4522 12.1424 98.9604 11.9961 99.4791 11.9945H101.801C101.847 11.9942 101.892 11.978 101.928 11.9485C101.963 11.9191 101.987 11.8783 101.997 11.833L102.249 10.509L102.276 10.3635C102.285 10.3115 102.274 10.258 102.244 10.2145C102.214 10.171 102.169 10.141 102.117 10.1309C102.105 10.1286 102.092 10.1275 102.08 10.1275H99.5353C98.9246 10.1174 98.3178 10.2284 97.75 10.4542C97.1822 10.68 96.6646 11.0161 96.2269 11.4433C95.7893 11.8704 95.4402 12.3801 95.1999 12.9429C94.9595 13.5058 94.8326 14.1108 94.8264 14.723C94.8202 15.3353 94.9349 15.9427 95.1639 16.5104C95.3928 17.078 95.7316 17.5946 96.1605 18.0305C96.5895 18.4664 97.1002 18.813 97.6633 19.0503C98.2265 19.2875 98.8308 19.4108 99.4417 19.413H102.177C102.224 19.414 102.27 19.3985 102.306 19.3693C102.343 19.34 102.368 19.2988 102.378 19.2528L103.366 14.0707C103.374 14.0187 103.362 13.9656 103.331 13.9227C103.301 13.8798 103.255 13.8507 103.203 13.8415C103.19 13.8399 103.177 13.8397 103.164 13.8408Z" fill="white" style="fill:white;fill-opacity:1;"/>
<path d="M116.825 10.1309H112.306C112.26 10.1312 112.215 10.1474 112.179 10.1769C112.144 10.2063 112.119 10.2471 112.11 10.2924L111.473 13.6752C111.464 13.721 111.44 13.7623 111.404 13.792C111.368 13.8217 111.323 13.838 111.276 13.8381H107.984C107.955 13.8378 107.926 13.8311 107.9 13.8185C107.874 13.8058 107.85 13.7876 107.832 13.765C107.813 13.7424 107.8 13.716 107.792 13.6876C107.785 13.6592 107.784 13.6296 107.789 13.6008L108.085 12.0468L108.403 10.3709C108.412 10.3193 108.401 10.2661 108.372 10.2227C108.343 10.1792 108.298 10.1489 108.247 10.1382C108.234 10.1358 108.221 10.1347 108.208 10.1349H106.708C106.662 10.1352 106.618 10.1515 106.582 10.1809C106.546 10.2103 106.522 10.2511 106.513 10.2965L105.225 17.0452L104.818 19.1831C104.813 19.2119 104.814 19.2415 104.821 19.2699C104.829 19.2983 104.842 19.3247 104.861 19.3473C104.879 19.3699 104.903 19.3881 104.929 19.4008C104.956 19.4134 104.984 19.4201 105.014 19.4204H106.51C106.556 19.4201 106.6 19.4038 106.636 19.3744C106.672 19.345 106.696 19.3042 106.705 19.2588L106.946 17.9965H106.953L107.354 15.866C107.363 15.8202 107.388 15.7789 107.424 15.7492C107.459 15.7195 107.505 15.7032 107.551 15.7031H110.848C110.877 15.7034 110.906 15.7101 110.932 15.7227C110.958 15.7354 110.982 15.7536 111 15.7762C111.019 15.7989 111.032 15.8253 111.04 15.8536C111.047 15.882 111.048 15.9116 111.043 15.9404L110.437 19.1804C110.428 19.2323 110.439 19.2858 110.468 19.3294C110.498 19.373 110.543 19.4033 110.595 19.4137C110.608 19.4161 110.621 19.4172 110.634 19.4171H112.128C112.175 19.417 112.22 19.4009 112.256 19.3715C112.291 19.342 112.316 19.301 112.325 19.2555L113.71 12.0019L116.921 10.5116C116.961 10.4911 116.993 10.4576 117.011 10.4167C117.03 10.3757 117.035 10.3296 117.024 10.2857C117.014 10.2419 116.989 10.2029 116.953 10.1749C116.918 10.1469 116.875 10.1317 116.83 10.1315L116.825 10.1309Z" fill="white" style="fill:white;fill-opacity:1;"/>
<path d="M121.731 13.8408H118.098C118.044 13.8408 117.993 13.8196 117.956 13.7819C117.918 13.7442 117.897 13.693 117.897 13.6397C117.896 13.6285 117.896 13.6173 117.897 13.6061L118.034 12.8211C118.04 12.7853 118.036 12.7487 118.023 12.715C118.009 12.6813 117.987 12.6518 117.959 12.6297C117.93 12.6076 117.896 12.5936 117.86 12.5893C117.824 12.585 117.788 12.5905 117.755 12.6053L115.969 13.4332C115.94 13.447 115.914 13.4676 115.895 13.4933C115.876 13.5189 115.863 13.5489 115.857 13.5807L115.154 17.5882L114.843 19.4157H120.824C120.87 19.4156 120.916 19.3991 120.952 19.3691C120.988 19.3391 121.012 19.2975 121.02 19.2515L121.273 17.7826C121.277 17.754 121.276 17.7247 121.268 17.6967C121.261 17.6686 121.247 17.6426 121.229 17.6203C121.21 17.598 121.187 17.58 121.161 17.5675C121.135 17.555 121.106 17.5484 121.077 17.548H117.446C117.392 17.548 117.341 17.5268 117.304 17.4891C117.266 17.4514 117.245 17.4002 117.245 17.3469C117.244 17.3349 117.244 17.3227 117.245 17.3107L117.497 15.8694C117.505 15.8231 117.53 15.7812 117.565 15.7509C117.601 15.7207 117.647 15.704 117.694 15.7038H121.471C121.518 15.7036 121.563 15.6869 121.599 15.6567C121.635 15.6264 121.66 15.5845 121.668 15.5382L121.92 14.0694C121.928 14.0177 121.916 13.9648 121.885 13.9222C121.855 13.8795 121.809 13.8503 121.758 13.8408H121.731Z" fill="white" style="fill:white;fill-opacity:1;"/>
<path d="M131.59 17.4508C131.566 17.4042 131.525 17.3688 131.476 17.3523C131.427 17.3359 131.373 17.3397 131.326 17.363L131.305 17.3751C131.083 17.5307 130.821 17.6184 130.55 17.6278C129.716 17.6278 129.23 16.6544 128.973 15.7507C128.96 15.7033 128.965 15.6527 128.986 15.6084C129.008 15.5642 129.045 15.5294 129.09 15.5107C129.694 15.2739 130.196 14.8331 130.51 14.2646C130.824 13.696 130.93 13.0354 130.81 12.3969C130.69 11.7583 130.351 11.182 129.851 10.7674C129.352 10.3528 128.724 10.126 128.076 10.1262H125.089C125.042 10.1263 124.997 10.1428 124.961 10.1728C124.925 10.2028 124.901 10.2444 124.892 10.2904L123.334 19.1784C123.326 19.23 123.338 19.283 123.367 19.3261C123.397 19.3692 123.442 19.3989 123.494 19.409C123.506 19.4102 123.519 19.4102 123.531 19.409H125.178C125.225 19.4086 125.27 19.3919 125.305 19.362C125.341 19.332 125.365 19.2906 125.374 19.2448L125.968 15.8587C125.977 15.8126 126.001 15.7709 126.036 15.7406C126.072 15.7104 126.117 15.6936 126.164 15.6931H126.939C126.987 15.6934 127.032 15.7103 127.068 15.741C127.104 15.7716 127.128 15.814 127.136 15.8607C127.325 16.9749 128.155 19.4083 130.167 19.4083C130.862 19.4246 131.538 19.1828 132.066 18.7292C132.104 18.7008 132.13 18.6598 132.141 18.6135C132.152 18.5673 132.146 18.5187 132.124 18.4765L131.59 17.4508ZM128.082 13.8408H126.56C126.506 13.8408 126.455 13.8196 126.418 13.7819C126.38 13.7442 126.359 13.693 126.359 13.6397C126.358 13.6281 126.358 13.6164 126.359 13.6048L126.611 12.1635C126.62 12.1174 126.644 12.0758 126.68 12.0459C126.716 12.0159 126.761 11.9994 126.808 11.9992H128.078V11.9838C128.32 11.9903 128.55 12.0913 128.719 12.2651C128.888 12.439 128.982 12.672 128.982 12.9147C128.982 13.1573 128.888 13.3903 128.719 13.5642C128.55 13.7381 128.32 13.839 128.078 13.8455L128.082 13.8408Z" fill="white" style="fill:white;fill-opacity:1;"/>
<path d="M140.853 11.3537C135.908 7.61157 130.338 13.1952 134.072 18.15C134.084 18.1664 134.099 18.1809 134.115 18.1929C139.058 21.935 144.63 16.3514 140.896 11.3966C140.884 11.3802 140.869 11.3657 140.853 11.3537ZM139.535 16.7838C139.522 16.8004 139.507 16.8152 139.49 16.828C136.536 19.0497 133.216 15.7226 135.433 12.7615C135.446 12.7448 135.461 12.73 135.477 12.7172C138.432 10.4996 141.751 13.8267 139.535 16.7878V16.7838Z" fill="white" style="fill:white;fill-opacity:1;"/>
<path d="M122.806 10.0846C122.799 10.0432 122.777 10.0057 122.745 9.9787C122.736 9.97133 122.726 9.96596 122.717 9.95993L119.471 8.44553C119.438 8.43071 119.401 8.42518 119.365 8.42953C119.329 8.43388 119.295 8.44796 119.266 8.47025C119.237 8.49254 119.215 8.52221 119.202 8.55611C119.189 8.59 119.185 8.62686 119.191 8.66274L119.463 10.0927C119.468 10.1172 119.468 10.1425 119.463 10.1671L119.191 11.5957C119.185 11.6317 119.188 11.6687 119.201 11.7028C119.215 11.7369 119.237 11.7668 119.265 11.7892C119.294 11.8117 119.328 11.8259 119.365 11.8303C119.401 11.8347 119.437 11.8291 119.471 11.8142L122.721 10.2998L122.745 10.2837C122.776 10.257 122.798 10.2201 122.806 10.1791V10.096C122.806 10.0819 122.807 10.0873 122.806 10.0846Z" fill="white" style="fill:white;fill-opacity:1;"/>
<path d="M122.806 10.0846C122.799 10.0432 122.777 10.0057 122.745 9.9787C122.736 9.97133 122.726 9.96596 122.717 9.95993L119.471 8.44553C119.438 8.43071 119.401 8.42518 119.365 8.42953C119.329 8.43388 119.295 8.44796 119.266 8.47025C119.237 8.49254 119.215 8.52221 119.202 8.55611C119.189 8.59 119.185 8.62686 119.191 8.66274L119.463 10.0927C119.468 10.1172 119.468 10.1425 119.463 10.1671L119.191 11.5957C119.185 11.6317 119.188 11.6687 119.201 11.7028C119.215 11.7369 119.237 11.7668 119.265 11.7892C119.294 11.8117 119.328 11.8259 119.365 11.8303C119.401 11.8347 119.437 11.8291 119.471 11.8142L122.721 10.2998L122.745 10.2837C122.776 10.257 122.798 10.2201 122.806 10.1791V10.096C122.806 10.0819 122.807 10.0873 122.806 10.0846Z" fill="white" style="fill:white;fill-opacity:1;"/>
<path d="M33.9504 0.260785L31.944 10.9199C31.9303 10.9932 31.8914 11.0594 31.8341 11.107C31.7768 11.1547 31.7047 11.1807 31.6303 11.1807H21.1653C21.1186 11.1806 21.0724 11.1702 21.0301 11.1502C20.9878 11.1303 20.9504 11.1012 20.9205 11.0651C20.8907 11.029 20.8691 10.9868 20.8573 10.9415C20.8455 10.8961 20.8438 10.8487 20.8524 10.8026L21.7626 5.89738C21.7764 5.82424 21.8152 5.7582 21.8724 5.71062C21.9295 5.66303 22.0014 5.63686 22.0756 5.63661L26.9265 5.63057C27.0005 5.63056 27.0721 5.60483 27.1292 5.55775C27.1863 5.51067 27.2253 5.44519 27.2395 5.37248L28.2073 0.38279C28.2163 0.336505 28.2149 0.28881 28.2034 0.243109C28.1918 0.197408 28.1703 0.154835 28.1404 0.118445C28.1105 0.082055 28.0729 0.0527499 28.0304 0.0326212C27.9878 0.0124924 27.9414 0.00203882 27.8943 0.00201517H14.1314C10.4334 -0.00799375 6.87951 1.43905 4.23603 4.03116C1.59255 6.62328 0.0712042 10.1528 -2.02198e-05 13.8589C-0.0165302 15.7083 0.332425 17.5427 1.02671 19.2562C1.72099 20.9698 2.74687 22.5286 4.04517 23.8428C5.34347 25.157 6.8885 26.2005 8.59115 26.9132C10.2938 27.6259 12.1204 27.9937 13.9655 27.9953H22.7986C22.8726 27.9953 22.9443 27.9694 23.0014 27.9222C23.0585 27.875 23.0975 27.8094 23.1116 27.7365L24.0794 22.7482C24.0885 22.7019 24.0872 22.6542 24.0757 22.6084C24.0642 22.5627 24.0427 22.52 24.0127 22.4836C23.9828 22.4472 23.9452 22.4179 23.9026 22.3978C23.86 22.3777 23.8135 22.3673 23.7664 22.3674H18.5469L12.8954 22.2742C12.8795 22.2739 12.8637 22.2726 12.8479 22.2702C10.879 21.9848 9.07419 21.0109 7.7524 19.5207C6.4306 18.0304 5.67698 16.1197 5.62473 14.1264C5.60897 13.0176 5.81294 11.9166 6.2248 10.8874C6.63667 9.85817 7.24825 8.92113 8.02409 8.13056C8.79992 7.34 9.72456 6.71166 10.7445 6.28194C11.7644 5.85222 12.8592 5.62968 13.9655 5.62722H15.6911C15.7381 5.62724 15.7846 5.63769 15.8271 5.65782C15.8697 5.67795 15.9072 5.70727 15.9371 5.74366C15.967 5.78005 15.9886 5.82261 16.0001 5.86831C16.0117 5.91401 16.0131 5.96172 16.0041 6.008L13.3536 19.7596C13.3447 19.8059 13.3462 19.8536 13.3578 19.8992C13.3694 19.9449 13.3909 19.9874 13.4208 20.0237C13.4507 20.0601 13.4882 20.0894 13.5307 20.1096C13.5732 20.1297 13.6196 20.1403 13.6666 20.1404L18.7583 20.1498C18.8315 20.1499 18.9026 20.1248 18.9595 20.0786C19.0165 20.0325 19.056 19.9682 19.0713 19.8964L19.6732 17.0674C19.6883 16.9957 19.7274 16.9314 19.7842 16.8852C19.841 16.8391 19.9118 16.8139 19.9849 16.8139H30.4472C30.4941 16.8139 30.5405 16.8242 30.583 16.8442C30.6255 16.8643 30.663 16.8934 30.6929 16.9297C30.7228 16.966 30.7444 17.0084 30.756 17.054C30.7676 17.0996 30.7691 17.1472 30.7602 17.1934L28.7758 27.6206C28.7671 27.6668 28.7686 27.7143 28.7803 27.7598C28.7919 27.8054 28.8135 27.8478 28.8434 27.884C28.8733 27.9202 28.9108 27.9494 28.9532 27.9695C28.9956 27.9895 29.0419 27.9999 29.0888 28H34.1718C34.2461 28 34.318 27.9741 34.3751 27.9266C34.4323 27.8791 34.4711 27.813 34.4848 27.7399L38.6703 5.8042C38.6797 5.75431 38.7008 5.70739 38.732 5.66739C38.7632 5.62738 38.8035 5.59545 38.8495 5.57426L49.5325 0.610053C49.5985 0.579484 49.6521 0.527237 49.6845 0.461964C49.7168 0.396692 49.7259 0.322313 49.7103 0.251139C49.6947 0.179965 49.6553 0.116263 49.5986 0.0705922C49.542 0.0249216 49.4715 1.52701e-05 49.3988 0H34.2641C34.1897 0.000100055 34.1177 0.0262037 34.0605 0.0738042C34.0032 0.121405 33.9643 0.187527 33.9504 0.260785Z" fill="white" style="fill:white;fill-opacity:1;"/>
<path d="M33.9504 0.260785L31.944 10.9199C31.9303 10.9932 31.8914 11.0594 31.8341 11.107C31.7768 11.1547 31.7047 11.1807 31.6303 11.1807H21.1653C21.1186 11.1806 21.0724 11.1702 21.0301 11.1502C20.9878 11.1303 20.9504 11.1012 20.9205 11.0651C20.8907 11.029 20.8691 10.9868 20.8573 10.9415C20.8455 10.8961 20.8438 10.8487 20.8524 10.8026L21.7626 5.89738C21.7764 5.82424 21.8152 5.7582 21.8724 5.71062C21.9295 5.66303 22.0014 5.63686 22.0756 5.63661L26.9265 5.63057C27.0005 5.63056 27.0721 5.60483 27.1292 5.55775C27.1863 5.51067 27.2253 5.44519 27.2395 5.37248L28.2073 0.38279C28.2163 0.336505 28.2149 0.28881 28.2034 0.243109C28.1918 0.197408 28.1703 0.154835 28.1404 0.118445C28.1105 0.082055 28.0729 0.0527499 28.0304 0.0326212C27.9878 0.0124924 27.9414 0.00203882 27.8943 0.00201517H14.1314C10.4334 -0.00799375 6.87951 1.43905 4.23603 4.03116C1.59255 6.62328 0.0712042 10.1528 -2.02198e-05 13.8589C-0.0165302 15.7083 0.332425 17.5427 1.02671 19.2562C1.72099 20.9698 2.74687 22.5286 4.04517 23.8428C5.34347 25.157 6.8885 26.2005 8.59115 26.9132C10.2938 27.6259 12.1204 27.9937 13.9655 27.9953H22.7986C22.8726 27.9953 22.9443 27.9694 23.0014 27.9222C23.0585 27.875 23.0975 27.8094 23.1116 27.7365L24.0794 22.7482C24.0885 22.7019 24.0872 22.6542 24.0757 22.6084C24.0642 22.5627 24.0427 22.52 24.0127 22.4836C23.9828 22.4472 23.9452 22.4179 23.9026 22.3978C23.86 22.3777 23.8135 22.3673 23.7664 22.3674H18.5469L12.8954 22.2742C12.8795 22.2739 12.8637 22.2726 12.8479 22.2702C10.879 21.9848 9.07419 21.0109 7.7524 19.5207C6.4306 18.0304 5.67698 16.1197 5.62473 14.1264C5.60897 13.0176 5.81294 11.9166 6.2248 10.8874C6.63667 9.85817 7.24825 8.92113 8.02409 8.13056C8.79992 7.34 9.72456 6.71166 10.7445 6.28194C11.7644 5.85222 12.8592 5.62968 13.9655 5.62722H15.6911C15.7381 5.62724 15.7846 5.63769 15.8271 5.65782C15.8697 5.67795 15.9072 5.70727 15.9371 5.74366C15.967 5.78005 15.9886 5.82261 16.0001 5.86831C16.0117 5.91401 16.0131 5.96172 16.0041 6.008L13.3536 19.7596C13.3447 19.8059 13.3462 19.8536 13.3578 19.8992C13.3694 19.9449 13.3909 19.9874 13.4208 20.0237C13.4507 20.0601 13.4882 20.0894 13.5307 20.1096C13.5732 20.1297 13.6196 20.1403 13.6666 20.1404L18.7583 20.1498C18.8315 20.1499 18.9026 20.1248 18.9595 20.0786C19.0165 20.0325 19.056 19.9682 19.0713 19.8964L19.6732 17.0674C19.6883 16.9957 19.7274 16.9314 19.7842 16.8852C19.841 16.8391 19.9118 16.8139 19.9849 16.8139H30.4472C30.4941 16.8139 30.5405 16.8242 30.583 16.8442C30.6255 16.8643 30.663 16.8934 30.6929 16.9297C30.7228 16.966 30.7444 17.0084 30.756 17.054C30.7676 17.0996 30.7691 17.1472 30.7602 17.1934L28.7758 27.6206C28.7671 27.6668 28.7686 27.7143 28.7803 27.7598C28.7919 27.8054 28.8135 27.8478 28.8434 27.884C28.8733 27.9202 28.9108 27.9494 28.9532 27.9695C28.9956 27.9895 29.0419 27.9999 29.0888 28H34.1718C34.2461 28 34.318 27.9741 34.3751 27.9266C34.4323 27.8791 34.4711 27.813 34.4848 27.7399L38.6703 5.8042C38.6797 5.75431 38.7008 5.70739 38.732 5.66739C38.7632 5.62738 38.8035 5.59545 38.8495 5.57426L49.5325 0.610053C49.5985 0.579484 49.6521 0.527237 49.6845 0.461964C49.7168 0.396692 49.7259 0.322313 49.7103 0.251139C49.6947 0.179965 49.6553 0.116263 49.5986 0.0705922C49.542 0.0249216 49.4715 1.52701e-05 49.3988 0H34.2641C34.1897 0.000100055 34.1177 0.0262037 34.0605 0.0738042C34.0032 0.121405 33.9643 0.187527 33.9504 0.260785Z" fill="white" style="fill:white;fill-opacity:1;"/>
</g>
<defs>
<clipPath id="clip0_78_742">
<rect width="146" height="28" fill="white" style="fill:white;fill-opacity:1;"/>
</clipPath>
</defs>
</svg>
