<svg width="1145" height="505" viewBox="0 0 1145 505" fill="none" xmlns="http://www.w3.org/2000/svg">
<path d="M570.801 142.7L784.852 20.3858L1145 231.5V346.558V420.5V681.714H1051.5H37.3739L0 661.328V569.102V214.05L404.318 0L570.801 142.7Z" fill="#0A0A0A" style="fill:#0A0A0A;fill:color(display-p3 0.0392 0.0392 0.0392);fill-opacity:1;"/>
<path fill-rule="evenodd" clip-rule="evenodd" d="M321.873 313.8V531.446L395.638 498.931V328.046H439.029V513.014L426.108 532.792L308.952 584.432L278.482 564.654V313.8H321.873Z" fill="white" style="fill:white;fill-opacity:1;"/>
<path fill-rule="evenodd" clip-rule="evenodd" d="M486.966 268.344L528.735 262.623L609.291 466.453L674.505 263.94L716.585 267.129L767.622 584.75L724.776 591.59L688.089 363.272L632.034 537.342L591.191 538.659L521.04 361.158L497.452 590.534L454.286 586.124L486.966 268.344Z" fill="white" style="fill:white;fill-opacity:1;"/>
<path fill-rule="evenodd" clip-rule="evenodd" d="M792.668 309.475L825.208 290.745L931.517 351.902L935.751 386.18L836.059 482.243V571.142H792.668V309.475ZM836.059 422.086L884.901 375.022L836.059 346.924V422.086Z" fill="white" style="fill:white;fill-opacity:1;"/>
<path fill-rule="evenodd" clip-rule="evenodd" d="M1070.7 232.66L995.739 359.087L1079.03 440.266L1083.84 464.158L1028.21 595.161L988.254 578.303L1038.12 460.88L953.234 378.151L949.725 351.686L1033.35 210.654L1070.7 232.66Z" fill="white" style="fill:white;fill-opacity:1;"/>
<path fill-rule="evenodd" clip-rule="evenodd" d="M44.1689 242.436L76.1432 223.392L245.522 314.219L246.777 351.58L182.53 391.773L260.408 445.202L259.84 481.206L77.5966 597.983L44.1689 579.792V242.436ZM131.921 372.37C131.642 372.536 131.366 372.709 131.094 372.888L87.5602 400.123V278.626L192.132 334.702L131.921 372.37ZM87.5602 451.186L142.5 416.816L208.946 462.401L87.5602 540.182V451.186Z" fill="white" style="fill:white;fill-opacity:1;"/>
<path d="M190.268 163.087L394.126 54.3633L361.659 109.137L190.268 163.087Z" fill="white" style="fill:white;fill-opacity:1;"/>
<path d="M638.755 142.699L781.455 61.1562L747.479 105.325L686.322 122.314L679.526 135.904L638.755 142.699Z" fill="white" style="fill:white;fill-opacity:1;"/>
</svg>
