<svg width="249" height="284" viewBox="0 0 249 284" fill="none" xmlns="http://www.w3.org/2000/svg">
<path d="M202.019 0L209.471 5.01774L212.29 38.9681L200.818 39.9206L199.359 22.3492L175.962 57.2253L202.452 86.9478L203.29 93.3793L182.545 134.313L172.277 129.109L191.247 91.6768L164.399 61.5537L163.917 54.5174L189.848 15.8628L174.473 20.6662L171.04 9.67823L202.019 0Z" fill="white" style="fill:white;fill-opacity:1;"/>
<path d="M163.585 135.599L165.971 136.85L162.988 142.539C162.282 143.885 162.546 145.017 163.968 145.763C165.406 146.517 166.404 146.027 167.101 144.696L170.085 139.007L172.47 140.258L169.471 145.978C168.172 148.455 166.125 149.644 162.822 147.911C159.534 146.187 159.287 143.796 160.586 141.319L163.585 135.599Z" fill="white" style="fill:white;fill-opacity:1;"/>
<path d="M171.92 152.488L169.535 151.237L174.675 141.434L178.529 143.455C180.563 144.521 182.148 146.406 180.833 148.914C179.478 151.498 177.316 151.456 175.129 150.31L173.508 149.46L171.92 152.488ZM175.994 144.719L174.479 147.609L175.87 148.339C176.727 148.788 177.719 148.977 178.369 147.738C179.051 146.439 178.181 145.866 177.386 145.449L175.994 144.719Z" fill="white" style="fill:white;fill-opacity:1;"/>
<path fill-rule="evenodd" clip-rule="evenodd" d="M5.87749 190.911L0.617109 180.772L31.9171 130.798L43.4717 131.143L54.6362 151.554L72.6285 128.804L83.7292 129.68L116.252 187.631L109.992 197.489L5.87749 190.911ZM47.6713 166.636C47.7171 166.725 47.7651 166.813 47.8151 166.899L55.3801 180.73L17.8839 178.361L37.2081 147.508L47.6713 166.636ZM71.1395 181.725L61.5923 164.271L76.9433 144.861L98.6053 183.461L71.1395 181.725Z" fill="#29A86D" style="fill:#29A86D;fill:color(display-p3 0.1600 0.6588 0.4260);fill-opacity:1;"/>
<path d="M13.04 211.978L13.8237 200.938L15.8906 201.084L19.9275 207.378L24.7955 201.716L26.8625 201.863L26.0788 212.904L23.3918 212.713L23.8332 206.495L19.6536 211.236L16.1684 205.951L15.727 212.169L13.04 211.978Z" fill="white" style="fill:white;fill-opacity:1;"/>
<path d="M28.4047 207.512C28.6492 204.067 31.6686 202.014 35.0101 202.251C38.3516 202.488 41.0162 204.945 40.7717 208.39C40.5272 211.835 37.5423 213.89 34.2008 213.653C30.8765 213.417 28.1614 210.94 28.4047 207.512ZM34.3646 211.345C36.3454 211.486 37.9109 210.16 38.0466 208.248C38.1823 206.336 36.821 204.786 34.8402 204.645C32.8766 204.506 31.2594 205.828 31.1225 207.757C30.9868 209.669 32.401 211.206 34.3646 211.345Z" fill="white" style="fill:white;fill-opacity:1;"/>
<path d="M42.9898 202.99L45.6768 203.181L45.222 209.588C45.1144 211.104 45.81 212.036 47.4118 212.15C49.0309 212.265 49.749 211.416 49.8554 209.917L50.3101 203.51L52.9971 203.701L52.5399 210.142C52.3419 212.933 50.9427 214.842 47.2222 214.578C43.519 214.315 42.3345 212.223 42.5326 209.432L42.9898 202.99Z" fill="white" style="fill:white;fill-opacity:1;"/>
<path d="M54.7047 214.935L55.4883 203.895L57.4519 204.034L62.6295 210.841L63.0842 204.434L65.7712 204.625L64.9876 215.665L63.024 215.526L57.8464 208.719L57.3917 215.126L54.7047 214.935Z" fill="white" style="fill:white;fill-opacity:1;"/>
<path d="M73.3262 216.257L70.6392 216.066L71.2602 207.316L67.402 207.043L67.5658 204.735L77.9693 205.473L77.8054 207.781L73.9472 207.507L73.3262 216.257Z" fill="white" style="fill:white;fill-opacity:1;"/>
<path d="M76.663 216.494L82.011 205.777L84.388 205.946L88.186 217.312L85.3612 217.111L84.4938 214.211L80.7561 213.945L79.4705 216.693L76.663 216.494ZM81.6202 212.016L83.8938 212.177L82.966 209.151L81.6202 212.016Z" fill="white" style="fill:white;fill-opacity:1;"/>
<path d="M92.2608 217.601L89.5738 217.41L90.3574 206.37L93.0444 206.56L92.2608 217.601Z" fill="white" style="fill:white;fill-opacity:1;"/>
<path d="M94.8218 217.783L95.6054 206.742L97.569 206.881L102.747 213.689L103.201 207.281L105.888 207.472L105.105 218.513L103.141 218.373L97.9636 211.566L97.5088 217.974L94.8218 217.783Z" fill="white" style="fill:white;fill-opacity:1;"/>
<path d="M165.684 178.518L141.518 220.375L183.375 244.54L207.54 202.684L165.684 178.518Z" fill="#FFBF00" style="fill:#FFBF00;fill:color(display-p3 1.0000 0.7500 0.0000);fill-opacity:1;"/>
<path fill-rule="evenodd" clip-rule="evenodd" d="M148.89 218.4L181.4 237.169L200.169 204.659L167.659 185.89L148.89 218.4ZM136.845 217.677L161.011 175.82L168.382 173.845L210.239 198.011L212.214 205.382L188.048 247.239L180.677 249.214L138.82 225.048L136.845 217.677Z" fill="#FFBF00" style="fill:#FFBF00;fill:color(display-p3 1.0000 0.7500 0.0000);fill-opacity:1;"/>
<path d="M142.595 283.138L139.993 283.835L137.128 273.144L141.331 272.018C143.549 271.423 145.992 271.734 146.725 274.47C147.481 277.288 145.863 278.723 143.478 279.362L141.71 279.836L142.595 283.138ZM140.324 274.665L141.169 277.818L142.687 277.411C143.621 277.161 144.479 276.627 144.117 275.276C143.737 273.858 142.709 274.026 141.842 274.258L140.324 274.665Z" fill="white" style="fill:white;fill-opacity:1;"/>
<path d="M148.382 275.849C147.488 272.513 149.671 269.586 152.907 268.719C156.143 267.852 159.463 269.304 160.357 272.64C161.251 275.976 159.101 278.894 155.865 279.761C152.646 280.624 149.271 279.168 148.382 275.849ZM155.267 277.526C157.185 277.012 158.232 275.248 157.735 273.396C157.239 271.545 155.446 270.524 153.528 271.038C151.627 271.547 150.53 273.325 151.03 275.193C151.526 277.044 153.365 278.036 155.267 277.526Z" fill="white" style="fill:white;fill-opacity:1;"/>
<path d="M166.245 276.801L163.643 277.498L160.778 266.807L163.38 266.11L166.245 276.801Z" fill="white" style="fill:white;fill-opacity:1;"/>
<path d="M168.725 276.137L165.86 265.445L167.762 264.936L174.879 269.679L173.216 263.474L175.818 262.777L178.683 273.468L176.781 273.978L169.665 269.235L171.327 275.439L168.725 276.137Z" fill="white" style="fill:white;fill-opacity:1;"/>
<path d="M186.757 271.305L184.155 272.002L181.885 263.529L178.149 264.53L177.55 262.295L187.624 259.596L188.223 261.831L184.487 262.832L186.757 271.305Z" fill="white" style="fill:white;fill-opacity:1;"/>
<path d="M201.279 259.155C200.329 258.944 198.494 258.9 197.393 259.195C196.759 259.365 196.124 259.731 196.316 260.449C196.495 261.116 197.256 261.287 198.516 261.254L198.977 261.237C200.643 261.184 202.813 261.211 203.448 263.579C204.096 265.998 201.825 267.464 199.657 268.045C198.206 268.434 196.373 268.532 195.08 268.109L194.75 265.677C195.914 266.152 198.071 266.128 199.372 265.78C200.156 265.57 200.924 265.167 200.705 264.35C200.508 263.616 199.495 263.637 198.318 263.649L197.191 263.647C195.653 263.576 194.087 263.138 193.573 261.219C192.943 258.868 194.759 257.505 196.827 256.951C198.295 256.558 199.907 256.501 200.936 256.672L201.279 259.155Z" fill="white" style="fill:white;fill-opacity:1;"/>
<path d="M213.966 264.014L205.96 266.159L203.096 255.468L211.118 253.318L211.713 255.537L206.292 256.989L206.833 259.007L211.536 257.747L212.073 259.749L207.369 261.009L207.968 263.244L213.372 261.796L213.966 264.014Z" fill="white" style="fill:white;fill-opacity:1;"/>
<path d="M220.585 257.914L225.053 261.044L221.967 261.87L217.93 258.948L217.513 259.059L218.514 262.796L215.912 263.493L213.043 252.785L217.413 251.614C219.915 250.943 221.785 251.783 222.402 254.085C222.84 255.719 222.287 256.994 220.585 257.914ZM216.235 254.289L217.017 257.208L218.335 256.855C219.336 256.587 220.096 255.954 219.787 254.803C219.519 253.802 218.754 253.614 217.77 253.878L216.235 254.289Z" fill="white" style="fill:white;fill-opacity:1;"/>
<path d="M228.89 260.015L226.288 260.713L223.423 250.021L226.025 249.324L228.89 260.015Z" fill="white" style="fill:white;fill-opacity:1;"/>
<path d="M239.376 257.206L231.37 259.351L228.505 248.659L236.528 246.51L237.122 248.728L231.702 250.181L232.242 252.199L236.946 250.938L237.482 252.94L232.779 254.2L233.378 256.435L238.782 254.987L239.376 257.206Z" fill="white" style="fill:white;fill-opacity:1;"/>
<path d="M246.463 247.048C245.513 246.837 243.677 246.793 242.577 247.088C241.943 247.258 241.308 247.624 241.5 248.342C241.679 249.009 242.44 249.18 243.7 249.147L244.161 249.13C245.827 249.077 247.997 249.104 248.632 251.472C249.28 253.891 247.009 255.357 244.841 255.938C243.39 256.327 241.557 256.425 240.264 256.002L239.934 253.57C241.098 254.045 243.254 254.021 244.555 253.673C245.339 253.463 246.108 253.06 245.889 252.243C245.692 251.509 244.679 251.53 243.502 251.542L242.375 251.54C240.837 251.469 239.271 251.031 238.757 249.112C238.127 246.761 239.943 245.398 242.011 244.844C243.479 244.451 245.09 244.394 246.12 244.565L246.463 247.048Z" fill="white" style="fill:white;fill-opacity:1;"/>
<path d="M78.6601 95.6758L74.2336 98.2314L68.6993 88.6458L73.3052 85.9865C74.9951 85.0109 76.71 85.3567 77.5303 86.7773C78.1519 87.854 78.0614 89.1824 77.0003 89.9346C78.5585 89.2144 79.8196 89.6029 80.5621 90.889C81.7967 93.0274 80.4247 94.657 78.6601 95.6758ZM72.1805 89.2878L73.3374 91.2917L74.9375 90.3678C75.76 89.893 75.9566 89.301 75.5508 88.5981C75.1191 87.8504 74.5283 87.9323 73.7058 88.4071L72.1805 89.2878ZM74.2181 92.817L75.4182 94.8956L77.4819 93.7042C78.1548 93.3156 78.6454 92.853 78.1446 91.9856C77.6179 91.0734 76.9248 91.2543 76.1173 91.7205L74.2181 92.817Z" fill="white" style="fill:white;fill-opacity:1;"/>
<path d="M85.9859 91.4462L83.653 92.7931L78.1187 83.2075L80.4516 81.8606L85.9859 91.4462Z" fill="white" style="fill:white;fill-opacity:1;"/>
<path d="M88.2094 90.1625L82.6751 80.5768L85.008 79.23L87.3909 83.3573L88.926 76.9679L91.857 75.2757L90.0299 82.4717L97.3913 84.8613L94.4602 86.5536L88.0816 84.5537L90.5422 88.8156L88.2094 90.1625Z" fill="white" style="fill:white;fill-opacity:1;"/>
<path d="M105.8 80.0066L98.6218 84.1509L93.0875 74.5652L100.281 70.4124L101.429 72.4013L96.5687 75.2073L97.6134 77.0167L101.83 74.582L102.867 76.3765L98.6495 78.8112L99.8064 80.8151L104.652 78.0177L105.8 80.0066Z" fill="white" style="fill:white;fill-opacity:1;"/>
<circle cx="43.2441" cy="65.5" r="22.5" fill="#CC3434" style="fill:#CC3434;fill:color(display-p3 0.8013 0.2028 0.2028);fill-opacity:1;"/>
<circle cx="88.2441" cy="40.5" r="22.5" fill="#CC3434" style="fill:#CC3434;fill:color(display-p3 0.8013 0.2028 0.2028);fill-opacity:1;"/>
</svg>
