<?xml version="1.0" standalone="no"?>
<!DOCTYPE svg PUBLIC "-//W3C//DTD SVG 20010904//EN"
 "http://www.w3.org/TR/2001/REC-SVG-20010904/DTD/svg10.dtd">
<svg version="1.0" xmlns="http://www.w3.org/2000/svg"
 width="1088.000000pt" height="1088.000000pt" viewBox="0 0 1088.000000 1088.000000"
 preserveAspectRatio="xMidYMid meet">
<metadata>
Created by potrace 1.14, written by Peter Selinger 2001-2017
</metadata>
<g transform="translate(0.000000,1088.000000) scale(0.100000,-0.100000)"
fill="#000000" stroke="none">
<path d="M5464 10865 c1 -16 -324 -347 -613 -625 -213 -205 -301 -311 -301
-365 0 -22 -43 -36 -79 -25 -16 4 -31 6 -34 4 -2 -2 -29 -6 -60 -8 -61 -4
-180 -40 -200 -61 -7 -7 -22 -15 -32 -19 -11 -3 -49 -36 -83 -73 -72 -76 -67
-72 -171 -168 -113 -105 -148 -139 -152 -150 -2 -5 -22 -36 -43 -68 -28 -41
-54 -66 -85 -82 -55 -28 -218 -183 -253 -240 -14 -22 -33 -46 -42 -54 -9 -7
-16 -19 -16 -25 0 -19 -42 -53 -75 -60 -19 -5 -63 -41 -119 -97 -49 -49 -92
-89 -96 -89 -4 0 -11 -10 -17 -22 -6 -13 -27 -44 -47 -70 -20 -27 -33 -48 -30
-48 4 0 0 -7 -7 -16 -15 -18 -19 -33 -22 -89 -3 -35 17 -100 34 -115 3 -3 10
-12 15 -21 17 -31 609 -630 644 -651 19 -12 40 -28 45 -35 15 -19 129 -63 183
-70 75 -10 119 -7 223 12 44 8 29 -29 -37 -91 -120 -112 -214 -208 -214 -216
0 -5 -4 -6 -10 -3 -5 3 -10 1 -10 -4 0 -15 -36 -14 -38 2 0 6 -3 22 -6 35 -3
12 -8 30 -10 40 -7 32 -84 134 -157 209 -74 75 -127 108 -194 117 -22 3 -41 5
-42 6 -2 0 -3 5 -3 11 0 9 -44 78 -75 116 -32 39 -144 153 -151 153 -14 1 -60
44 -67 65 -29 73 -200 270 -265 304 -16 8 -41 10 -75 6 -46 -7 -58 -14 -118
-74 -36 -36 -86 -85 -110 -107 -24 -23 -60 -59 -80 -80 -19 -22 -51 -53 -70
-69 -18 -17 -49 -46 -66 -65 -18 -19 -49 -48 -68 -64 -20 -16 -47 -48 -61 -72
-14 -24 -43 -54 -67 -68 -23 -14 -55 -38 -72 -55 -118 -117 -170 -175 -212
-235 -35 -51 -61 -76 -95 -93 -60 -31 -235 -195 -260 -243 -7 -14 -17 -30 -23
-36 -12 -13 -43 -54 -54 -72 -4 -7 -14 -15 -22 -16 -60 -12 -228 -160 -268
-236 -11 -19 -28 -43 -39 -53 -11 -10 -30 -51 -43 -92 -21 -71 -24 -74 -58
-80 -20 -4 -57 -17 -83 -30 -46 -23 -58 -31 -97 -65 -9 -8 -35 -28 -56 -45
-47 -35 -49 -37 -98 -98 -21 -26 -43 -47 -49 -47 -15 0 -218 -207 -218 -222
-1 -21 -78 -100 -84 -85 -2 6 -4 -40 -3 -103 1 -67 6 -115 12 -115 5 0 25 -18
45 -40 28 -32 701 -716 788 -801 55 -53 127 -68 234 -48 34 6 40 3 91 -45 30
-29 57 -61 60 -72 4 -15 -11 -39 -59 -91 l-64 -70 22 -26 c13 -15 62 -63 109
-107 48 -44 87 -83 88 -86 1 -8 111 -119 111 -113 0 3 18 -16 41 -43 23 -26
201 -210 397 -408 196 -198 521 -526 721 -730 686 -695 845 -855 853 -855 4 0
8 -6 8 -14 0 -8 6 -16 12 -18 18 -6 19 -165 1 -183 -12 -12 -21 -10 -61 16
-52 33 -160 69 -213 72 -84 3 -220 -33 -257 -70 -24 -24 -68 -42 -81 -34 -6 4
-14 21 -16 37 -2 16 -4 31 -5 34 -2 3 -2 8 -1 13 0 4 -4 7 -10 7 -5 0 -8 4 -5
9 6 9 -39 76 -70 103 -34 30 -118 66 -169 73 -87 12 -367 11 -383 -1 -16 -12
-16 7 -24 -752 -2 -178 0 -236 10 -244 16 -14 279 -16 306 -3 17 9 20 22 23
85 3 82 10 202 12 211 0 3 26 11 57 18 31 7 71 19 90 27 19 8 37 15 41 15 5 0
13 5 20 10 12 11 26 -4 30 -31 9 -68 16 -96 31 -130 9 -22 20 -40 24 -40 5 0
8 -6 8 -12 1 -20 30 -50 90 -94 49 -37 140 -81 140 -69 0 2 12 0 26 -5 38 -15
127 -13 200 4 33 7 124 48 124 55 0 9 58 33 71 29 7 -2 14 -19 16 -38 2 -19 8
-39 13 -44 11 -11 549 -16 590 -6 25 6 25 7 25 116 0 60 5 114 10 120 22 26
31 -7 30 -108 -1 -134 -1 -134 130 -132 l100 1 173 -171 c125 -124 171 -177
167 -188 -4 -9 -32 -29 -63 -44 -31 -15 -69 -39 -85 -53 -96 -86 -121 -295
-49 -418 36 -61 112 -118 176 -134 67 -16 171 -15 222 3 27 10 48 12 58 6 14
-8 95 -13 351 -22 62 -2 89 2 118 16 20 10 37 14 37 9 0 -21 82 -25 483 -25
328 -1 419 -4 426 -14 4 -7 7 -37 7 -67 l-1 -55 125 1 c69 0 119 3 112 6 -6 2
-9 10 -5 16 3 6 8 28 9 50 2 22 5 41 7 43 2 2 21 6 43 9 21 4 48 9 59 13 30 9
38 9 59 -1 29 -14 202 -15 242 -1 29 10 45 9 92 -5 31 -9 68 -16 82 -14 27 3
65 11 65 13 0 2 31 10 66 17 20 3 34 1 39 -7 6 -9 72 -13 256 -16 137 -2 267
-4 289 -5 22 0 56 0 75 0 19 1 150 0 291 -1 292 -3 292 -3 283 -74 l-5 -44
131 0 c121 0 130 1 122 18 -5 9 -8 24 -7 32 1 8 3 22 3 32 2 11 15 18 45 23
62 11 100 29 145 70 51 45 74 105 75 192 1 89 -17 153 -59 201 -49 58 -99 74
-224 76 -58 1 -111 5 -117 9 -7 4 -20 24 -30 44 -12 25 -29 41 -60 55 -75 33
-139 8 -178 -69 -18 -37 -23 -41 -53 -38 -48 4 -81 29 -78 60 6 50 -12 59
-123 58 -56 0 -103 -2 -106 -4 -2 -3 -6 -26 -8 -53 -5 -52 -20 -69 -51 -60
-36 12 -111 6 -151 -12 -57 -25 -64 -25 -109 -2 -36 19 -59 21 -192 21 -129 1
-154 -2 -169 -16 -20 -21 -17 -21 -63 -1 -46 20 -149 26 -196 12 -27 -9 -39
-8 -50 2 -9 7 -14 16 -11 20 3 5 1 11 -5 15 -6 4 -8 10 -5 15 7 12 -56 70 -77
70 -9 0 -19 4 -23 10 -3 5 -11 7 -18 5 -7 -2 -24 -6 -38 -9 -37 -8 -66 -37
-89 -89 -17 -38 -24 -45 -43 -41 -80 17 -106 20 -128 16 -33 -7 -281 -7 -352
-1 -32 3 -60 2 -62 -2 -3 -4 -29 -5 -57 -4 -57 4 -532 15 -610 15 -32 0 -48 4
-48 12 0 7 98 110 218 230 201 202 220 219 252 219 19 -1 62 -1 95 -1 77 -1
145 15 221 51 33 16 63 29 66 29 4 0 9 -13 13 -30 4 -16 12 -33 18 -37 20 -12
277 -10 295 3 16 12 20 59 25 296 1 45 6 78 12 78 5 0 4 4 -3 9 -11 7 -11 9 2
14 8 3 19 1 22 -5 4 -6 8 -95 9 -196 1 -154 4 -186 17 -196 21 -15 284 -14
300 2 6 6 12 25 13 42 4 41 11 47 38 30 12 -7 35 -21 52 -29 16 -9 32 -19 35
-23 8 -11 93 -37 141 -44 70 -10 123 -8 206 10 28 6 97 38 144 68 l37 22 53
-35 c86 -56 132 -71 230 -73 59 -1 159 22 159 36 0 5 4 7 9 4 12 -8 91 63 91
80 0 8 4 14 8 14 31 0 51 221 26 295 -18 54 -17 68 7 99 17 21 19 32 11 54 -7
20 -6 35 3 53 12 21 11 28 -13 59 -83 110 -191 162 -321 153 -76 -5 -139 -33
-194 -85 -22 -21 -46 -38 -54 -38 -12 0 -36 17 -68 48 -8 6 -18 12 -24 12 -6
0 -11 4 -11 8 0 8 -88 43 -125 50 -83 15 -118 16 -175 6 -36 -6 -83 -19 -105
-29 -22 -10 -43 -18 -46 -17 -4 1 -15 -8 -24 -18 -39 -43 -58 -22 -61 70 -1
36 -4 72 -6 80 -5 23 -58 100 -68 100 -6 0 -10 10 -10 23 0 15 47 68 158 177
86 85 306 301 487 479 182 179 472 465 645 636 825 812 965 951 971 965 4 10
-15 38 -52 78 -69 76 -69 89 1 154 54 51 66 52 110 13 25 -23 71 -38 124 -40
35 -1 91 24 131 59 17 14 34 26 38 26 5 0 5 4 2 10 -3 6 -2 10 3 10 10 0 125
110 188 180 22 25 86 90 142 144 56 54 102 104 102 109 0 6 2 8 5 6 2 -3 84
73 182 168 98 95 181 173 186 173 4 0 7 48 6 108 0 59 -3 102 -5 95 -7 -16
-51 23 -71 62 -14 28 -186 204 -201 206 -42 4 -92 39 -92 64 0 7 -9 20 -20 30
-11 10 -20 24 -20 32 0 7 -50 64 -112 127 -61 63 -114 120 -118 126 -4 6 -27
21 -51 33 -24 12 -48 31 -54 42 -27 51 -119 165 -134 165 -6 0 -11 4 -11 9 0
13 -71 80 -102 97 -49 26 -99 19 -159 -21 -22 -14 -41 -21 -44 -15 -3 6 -3 10
2 10 4 0 9 17 11 38 1 20 4 46 6 57 6 37 -41 150 -75 181 -11 10 -19 22 -19
28 0 6 -36 49 -79 95 -76 80 -128 114 -216 138 -25 7 -55 33 -55 47 0 24 -21
86 -34 98 -7 8 -25 32 -39 55 -14 23 -53 67 -86 100 -101 99 -106 105 -233
233 -68 69 -140 145 -161 168 -21 23 -56 53 -77 67 -37 24 -80 73 -80 93 0 6
-9 14 -20 17 -11 4 -18 11 -15 16 4 5 2 9 -3 9 -6 0 -32 23 -59 51 -42 46
-105 86 -125 81 -9 -2 -58 61 -58 76 0 6 -4 12 -8 14 -5 2 -20 21 -35 43 -36
54 -257 276 -268 269 -12 -7 -61 43 -94 96 -40 63 -209 230 -234 230 -11 0
-32 16 -48 38 -15 20 -30 39 -33 42 -3 3 -15 19 -26 37 -19 32 -126 145 -180
193 -22 19 -42 25 -84 27 -30 1 -58 2 -63 3 -8 0 -26 41 -30 69 -1 9 -12 35
-25 59 -12 23 -19 42 -16 42 2 0 -4 10 -16 22 -11 12 -20 28 -20 35 0 7 -4 13
-9 13 -5 0 -13 10 -16 21 -12 36 -207 227 -240 235 -17 4 -34 10 -40 14 -10 7
-37 15 -100 26 -37 7 -38 8 -40 42 -2 45 -26 103 -63 156 -31 45 -164 183
-217 227 -11 9 -31 30 -45 48 -22 27 -76 50 -102 43 -9 -2 -49 49 -44 57 2 3
-9 24 -24 46 -16 22 -37 55 -46 74 -10 18 -39 50 -65 70 -25 20 -54 48 -63 63
-9 15 -37 42 -61 59 -25 18 -45 37 -45 42 0 5 -11 23 -25 39 -14 16 -23 34
-19 39 3 5 -31 9 -79 9 -68 0 -85 -3 -83 -15z m-440 -1600 c24 -19 49 -35 56
-35 19 0 52 -40 74 -88 10 -23 23 -42 27 -42 9 0 19 -10 87 -88 29 -33 69 -68
87 -77 40 -18 123 -26 146 -14 23 12 35 -7 38 -60 2 -29 -1 -41 -8 -37 -6 4
-11 2 -11 -4 0 -6 -12 1 -27 15 -47 42 -23 59 -323 -230 -95 -91 -129 -116
-131 -92 -2 28 -10 74 -18 97 -14 42 -89 152 -140 205 -26 28 -47 57 -46 66 2
9 20 43 40 75 66 103 75 130 78 244 2 68 10 100 23 100 3 0 25 -16 48 -35z
m1138 -902 c19 -16 19 -184 0 -191 -18 -6 -182 163 -182 189 0 19 159 20 182
2z m-1522 -228 c8 -2 18 -4 23 -4 32 -4 -80 -118 -115 -118 -11 0 -15 7 -12
24 2 12 6 37 8 55 2 17 11 37 21 44 15 11 26 11 75 -1z m2066 -423 c19 -3 24
-30 12 -57 -15 -33 -22 -32 -64 12 -44 45 -31 56 52 45z m846 -865 c-8 -29
-19 -55 -25 -58 -12 -9 -55 28 -73 63 -16 31 -12 35 55 53 28 7 48 8 52 2 4
-5 0 -32 -9 -60z m812 -812 c-4 -47 -21 -76 -39 -69 -8 4 -15 10 -15 16 0 5
-4 7 -8 4 -5 -3 -19 13 -31 34 -16 29 -19 40 -9 41 21 1 61 9 65 13 2 2 12 2
22 -1 14 -4 18 -13 15 -38z m-6403 -562 c8 -8 -4 -26 -50 -73 -56 -56 -92 -71
-76 -31 4 9 11 34 17 55 5 22 16 45 25 51 20 15 68 14 84 -2z"/>
<path d="M1592 794 c-15 -11 -16 -45 -16 -313 0 -165 3 -303 6 -307 4 -3 53
-7 110 -8 l103 -1 15 32 c18 39 23 40 52 8 30 -32 67 -42 150 -40 47 1 71 7
83 18 20 20 10 21 74 -4 63 -23 155 -28 190 -10 16 9 39 11 70 6 57 -10 239
-15 578 -17 199 -1 268 1 286 11 21 11 32 11 63 0 48 -16 60 -18 104 -20 62
-2 160 24 160 43 0 4 16 10 35 14 25 4 41 1 62 -13 48 -34 94 -47 152 -44 77
4 168 4 286 2 55 -2 125 -2 155 -2 30 0 100 -1 154 -2 58 -1 105 2 114 9 11 8
15 35 16 107 1 87 4 99 26 122 22 24 24 33 25 142 1 110 -1 118 -24 146 -14
16 -26 43 -27 59 -2 16 -7 35 -12 41 -13 15 -198 15 -213 0 -6 -6 -11 -25 -13
-43 -1 -18 -10 -38 -20 -46 -17 -12 -60 -13 -71 -2 -3 3 -22 3 -43 0 -35 -5
-241 -6 -367 -1 -61 2 -101 -12 -153 -52 -22 -17 -25 -17 -96 20 -66 33 -82
37 -143 36 -53 0 -82 -7 -124 -28 -67 -32 -79 -33 -107 -7 -12 11 -28 20 -37
20 -8 0 -15 4 -15 8 0 7 -24 12 -67 15 -14 0 -26 29 -28 66 -3 43 -21 46 -219
45 -102 0 -188 -3 -191 -5 -2 -3 -7 -25 -9 -48 -6 -62 -7 -62 -151 -66 -44 -1
-88 -5 -97 -9 -9 -4 -22 -5 -28 -1 -27 17 -160 26 -190 14 -8 -4 -27 -12 -41
-19 -50 -23 -64 -11 -65 53 0 32 -6 63 -12 69 -7 7 -49 12 -104 13 -77 1 -95
-2 -110 -17 -10 -10 -16 -23 -13 -27 2 -5 -1 -11 -9 -14 -8 -3 -28 7 -45 24
-34 32 -30 31 -124 33 -40 1 -75 -3 -85 -10z"/>
</g>
</svg>
