<svg width="18" height="20" viewBox="0 0 18 20" fill="none" xmlns="http://www.w3.org/2000/svg">
<path fill-rule="evenodd" clip-rule="evenodd" d="M0.000852024 1.18108V2.36215H9.00043H18V1.18108V0H9.00043H0.000852024V1.18108ZM0.00893117 5.68081L0.0178967 6.8702L9.00895 6.87858L18 6.88697V5.68919V4.49141H8.99998H0L0.00893117 5.68081ZM0.000852024 14.5065V19.9968L0.111642 19.941C0.17256 19.9103 2.17064 18.8225 4.55177 17.5237C6.93291 16.2249 8.91203 15.1484 8.9498 15.1315L9.01849 15.1009L13.3303 17.4514C15.7018 18.7442 17.7226 19.8465 17.821 19.901L18 20V14.508V9.0161H9.00043H0.000852024V14.5065Z" fill="white" style="fill:white;fill-opacity:1;"/>
</svg>
